<svg width="177" height="31" viewBox="0 0 177 31" fill="none" xmlns="http://www.w3.org/2000/svg">
<path d="M13.1009 4.28C13.1009 5.04 12.9309 5.66 12.5909 6.14C12.2709 6.6 11.8009 6.83 11.1809 6.83C10.6209 6.83 10.1209 6.62 9.6809 6.2C9.9609 6 10.1709 5.71 10.3109 5.33C10.4709 4.95 10.5509 4.56 10.5509 4.16C10.5509 3.54 10.3509 3.03 9.9509 2.63C9.5509 2.23 8.9409 2.03 8.1209 2.03C7.2209 2.03 6.5709 2.28 6.1709 2.78C5.7709 3.28 5.5709 3.95 5.5709 4.79C5.5709 5.77 5.8009 6.57 6.2609 7.19C6.7409 7.81 7.3309 8.37 8.0309 8.87C8.7309 9.35 9.4809 9.81 10.2809 10.25C11.1009 10.69 11.8609 11.21 12.5609 11.81C13.2609 12.41 13.8409 13.14 14.3009 14C14.7809 14.84 15.0209 15.92 15.0209 17.24C15.0209 18.36 14.8309 19.32 14.4509 20.12C14.0909 20.92 13.5909 21.58 12.9509 22.1C12.3109 22.6 11.5509 22.96 10.6709 23.18C9.7909 23.42 8.8309 23.54 7.7909 23.54C6.8709 23.54 5.9609 23.44 5.0609 23.24C4.1809 23.06 3.3909 22.76 2.6909 22.34C2.0109 21.9 1.4609 21.33 1.0409 20.63C0.620898 19.91 0.410898 19.04 0.410898 18.02C0.410898 17.34 0.500898 16.72 0.680899 16.16C0.880898 15.6 1.1409 15.13 1.4609 14.75C1.8009 14.37 2.1909 14.08 2.6309 13.88C3.0709 13.66 3.5309 13.55 4.0109 13.55C4.2509 13.55 4.5109 13.58 4.7909 13.64C5.0709 13.7 5.3509 13.81 5.6309 13.97C5.9109 14.11 6.1709 14.31 6.4109 14.57C6.6509 14.83 6.8409 15.15 6.9809 15.53C6.6209 15.53 6.2609 15.57 5.9009 15.65C5.5409 15.73 5.2109 15.87 4.9109 16.07C4.6309 16.27 4.4009 16.55 4.2209 16.91C4.0409 17.25 3.9509 17.69 3.9509 18.23C3.9509 19.27 4.2709 20.02 4.9109 20.48C5.5509 20.92 6.3509 21.14 7.3109 21.14C8.2709 21.14 9.0109 20.91 9.5309 20.45C10.0509 19.99 10.3109 19.2 10.3109 18.08C10.3109 17.04 10.0909 16.16 9.6509 15.44C9.2309 14.72 8.6909 14.09 8.0309 13.55C7.3709 13.01 6.6609 12.51 5.9009 12.05C5.1609 11.57 4.4609 11.06 3.8009 10.52C3.1409 9.96 2.5909 9.31 2.1509 8.57C1.7309 7.83 1.5209 6.92 1.5209 5.84C1.5209 4.1 2.1009 2.78 3.2609 1.88C4.4209 0.959998 6.0009 0.499998 8.0009 0.499998C8.2809 0.499998 8.7009 0.529998 9.2609 0.589999C9.8409 0.629998 10.4109 0.779998 10.9709 1.04C11.5509 1.28 12.0509 1.66 12.4709 2.18C12.8909 2.68 13.1009 3.38 13.1009 4.28ZM31.9798 7.4C32.9998 7.4 33.7298 7.9 34.1698 8.9C34.6298 9.9 34.8598 11.28 34.8598 13.04C34.8598 14.18 34.7598 15.35 34.5598 16.55C34.3598 17.75 34.0198 18.84 33.5398 19.82C33.0598 20.8 32.4198 21.61 31.6198 22.25C30.8398 22.87 29.8598 23.18 28.6798 23.18C27.6798 23.18 26.8298 22.96 26.1298 22.52C25.4298 22.08 24.9098 21.46 24.5698 20.66C24.3098 21.22 24.0198 21.67 23.6998 22.01C23.3798 22.33 23.0498 22.58 22.7098 22.76C22.3698 22.94 22.0298 23.05 21.6898 23.09C21.3498 23.15 21.0298 23.18 20.7298 23.18C19.3098 23.18 18.2798 22.76 17.6398 21.92C17.0198 21.08 16.7098 19.95 16.7098 18.53V8H21.0298V18.2C21.0298 18.96 21.1298 19.5 21.3298 19.82C21.5498 20.12 21.8598 20.27 22.2598 20.27C22.7998 20.27 23.2298 20.02 23.5498 19.52C23.8698 19.02 24.0598 18.39 24.1198 17.63V8H28.4398V18.2C28.4398 18.92 28.5398 19.45 28.7398 19.79C28.9398 20.11 29.2698 20.27 29.7298 20.27C30.3098 20.27 30.8098 20.04 31.2298 19.58C31.6498 19.12 31.9898 18.53 32.2498 17.81C32.5298 17.09 32.7298 16.29 32.8498 15.41C32.9898 14.53 33.0598 13.67 33.0598 12.83C33.0598 11.91 32.9798 11.05 32.8198 10.25C32.7798 10.35 32.6498 10.43 32.4298 10.49C32.2098 10.53 32.0398 10.55 31.9198 10.55C31.6998 10.55 31.4998 10.49 31.3198 10.37C31.1598 10.25 31.0098 10.1 30.8698 9.92C30.7498 9.72 30.6498 9.51 30.5698 9.29C30.5098 9.07 30.4798 8.86 30.4798 8.66C30.4798 8.3 30.5998 8 30.8398 7.76C31.0998 7.52 31.4798 7.4 31.9798 7.4ZM40.8638 8V18.2C40.8638 19.04 40.9738 19.6 41.1938 19.88C41.4338 20.14 41.8438 20.27 42.4238 20.27C43.0038 20.27 43.4838 20.02 43.8638 19.52C44.2638 19.02 44.4938 18.39 44.5538 17.63H45.8138C45.6538 18.85 45.3738 19.83 44.9738 20.57C44.5738 21.29 44.1238 21.85 43.6238 22.25C43.1238 22.63 42.6138 22.88 42.0938 23C41.5738 23.12 41.1138 23.18 40.7138 23.18C39.1738 23.18 38.0938 22.76 37.4738 21.92C36.8538 21.06 36.5438 19.93 36.5438 18.53V8H40.8638ZM36.2138 4.01C36.2138 3.35 36.4438 2.79 36.9038 2.33C37.3638 1.85 37.9238 1.61 38.5838 1.61C39.2438 1.61 39.8038 1.85 40.2638 2.33C40.7438 2.79 40.9838 3.35 40.9838 4.01C40.9838 4.67 40.7438 5.23 40.2638 5.69C39.8038 6.15 39.2438 6.38 38.5838 6.38C37.9238 6.38 37.3638 6.15 36.9038 5.69C36.4438 5.23 36.2138 4.67 36.2138 4.01ZM48.8618 6.89V9.14C49.2018 8.78 49.6318 8.48 50.1518 8.24C50.6718 7.98 51.3018 7.85 52.0418 7.85C52.7218 7.85 53.3618 7.98 53.9618 8.24C54.5818 8.5 55.1218 8.92 55.5818 9.5C56.0618 10.06 56.4418 10.81 56.7218 11.75C57.0018 12.69 57.1418 13.83 57.1418 15.17C57.1418 16.13 57.0518 17.09 56.8718 18.05C56.7118 19.01 56.4218 19.87 56.0018 20.63C55.5818 21.39 55.0118 22.01 54.2918 22.49C53.5918 22.95 52.7118 23.18 51.6518 23.18C50.8918 23.18 50.2918 23.08 49.8518 22.88C49.4118 22.66 49.0818 22.41 48.8618 22.13V29.42L44.5418 30.5V6.89H48.8618ZM50.2118 20.57C50.7318 20.57 51.1718 20.4 51.5318 20.06C51.8918 19.7 52.1718 19.24 52.3718 18.68C52.5918 18.12 52.7418 17.5 52.8218 16.82C52.9218 16.12 52.9718 15.43 52.9718 14.75C52.9718 13.65 52.8718 12.78 52.6718 12.14C52.4918 11.5 52.2718 11.03 52.0118 10.73C51.7518 10.41 51.4918 10.21 51.2318 10.13C50.9918 10.05 50.8018 10.01 50.6618 10.01C50.3018 10.01 49.9518 10.14 49.6118 10.4C49.2718 10.64 49.0218 11.01 48.8618 11.51V19.88C48.9618 20.04 49.1218 20.2 49.3418 20.36C49.5618 20.5 49.8518 20.57 50.2118 20.57ZM65.025 20.33C65.605 20.33 66.185 20.17 66.765 19.85C67.345 19.53 67.835 19.16 68.235 18.74C68.235 19.6 68.125 20.32 67.905 20.9C67.705 21.46 67.415 21.91 67.035 22.25C66.655 22.59 66.205 22.83 65.685 22.97C65.185 23.11 64.625 23.18 64.005 23.18C63.145 23.18 62.345 23.06 61.605 22.82C60.885 22.56 60.265 22.15 59.745 21.59C59.225 21.03 58.815 20.31 58.515 19.43C58.215 18.55 58.065 17.48 58.065 16.22C58.065 15.38 58.155 14.47 58.335 13.49C58.535 12.51 58.865 11.61 59.325 10.79C59.785 9.95 60.405 9.25 61.185 8.69C61.985 8.13 62.985 7.85 64.185 7.85C65.185 7.85 65.955 8 66.495 8.3C67.035 8.58 67.435 8.93 67.695 9.35C67.955 9.75 68.105 10.17 68.145 10.61C68.185 11.03 68.205 11.37 68.205 11.63C68.205 12.35 68.055 13.03 67.755 13.67C67.455 14.29 67.045 14.84 66.525 15.32C66.005 15.78 65.395 16.16 64.695 16.46C64.015 16.74 63.275 16.9 62.475 16.94C62.575 18.24 62.865 19.13 63.345 19.61C63.825 20.09 64.385 20.33 65.025 20.33ZM65.865 11.45C65.865 10.69 65.745 10.17 65.505 9.89C65.285 9.59 65.035 9.44 64.755 9.44C64.395 9.44 64.075 9.63 63.795 10.01C63.535 10.39 63.305 10.88 63.105 11.48C62.905 12.06 62.745 12.71 62.625 13.43C62.525 14.15 62.465 14.84 62.445 15.5C62.945 15.46 63.405 15.33 63.825 15.11C64.245 14.87 64.605 14.57 64.905 14.21C65.205 13.85 65.435 13.43 65.595 12.95C65.775 12.47 65.865 11.97 65.865 11.45ZM95.3942 10.61C95.4342 10.81 95.4542 10.97 95.4542 11.09C95.4542 11.49 95.3542 11.89 95.1542 12.29C94.9742 12.69 94.7142 13.06 94.3742 13.4C94.0342 13.74 93.6342 14.04 93.1742 14.3C92.7142 14.54 92.2042 14.7 91.6442 14.78C91.6242 16 91.4142 17.14 91.0142 18.2C90.6342 19.26 90.0942 20.19 89.3942 20.99C88.6942 21.77 87.8342 22.39 86.8142 22.85C85.8142 23.31 84.6842 23.54 83.4242 23.54C82.2842 23.54 81.2842 23.36 80.4242 23C79.5842 22.62 78.8742 22.12 78.2942 21.5C77.7342 20.88 77.3142 20.17 77.0342 19.37C76.7542 18.57 76.6142 17.75 76.6142 16.91C76.6142 16.23 76.6942 15.55 76.8542 14.87C77.0342 14.17 77.2942 13.53 77.6342 12.95C77.9742 12.35 78.3942 11.84 78.8942 11.42C79.4142 10.98 80.0142 10.67 80.6942 10.49C79.7342 9.89 79.0342 9.2 78.5942 8.42C78.1742 7.64 77.9642 6.81 77.9642 5.93C77.9642 5.25 78.0842 4.58 78.3242 3.92C78.5642 3.26 78.9142 2.68 79.3742 2.18C79.8542 1.66 80.4242 1.24 81.0842 0.919998C81.7442 0.599999 82.4942 0.439999 83.3342 0.439999C84.2542 0.439999 85.0342 0.559999 85.6742 0.8C86.3142 1.04 86.8342 1.35 87.2342 1.73C87.6342 2.11 87.9242 2.54 88.1042 3.02C88.2842 3.5 88.3742 3.98 88.3742 4.46C88.3742 4.8 88.3342 5.14 88.2542 5.48C88.1942 5.8 88.0942 6.09 87.9542 6.35C87.8142 6.61 87.6442 6.82 87.4442 6.98C87.2442 7.12 87.0142 7.19 86.7542 7.19C86.5342 7.19 86.3142 7.15 86.0942 7.07C85.8742 6.97 85.6342 6.78 85.3742 6.5C85.6542 6.34 85.8542 6.07 85.9742 5.69C86.0942 5.29 86.1542 4.87 86.1542 4.43C86.1542 3.95 86.0842 3.56 85.9442 3.26C85.8042 2.94 85.6242 2.7 85.4042 2.54C85.2042 2.38 84.9742 2.27 84.7142 2.21C84.4742 2.15 84.2342 2.12 83.9942 2.12C83.6342 2.12 83.3142 2.22 83.0342 2.42C82.7542 2.6 82.5142 2.85 82.3142 3.17C82.1142 3.49 81.9642 3.86 81.8642 4.28C81.7642 4.68 81.7142 5.1 81.7142 5.54C81.7142 6.06 81.7942 6.58 81.9542 7.1C82.1142 7.6 82.3542 8.07 82.6742 8.51C82.9942 8.95 83.4042 9.34 83.9042 9.68C84.4042 10.02 85.0042 10.28 85.7042 10.46C85.0642 10.62 84.4942 10.91 83.9942 11.33C83.4942 11.73 83.0742 12.22 82.7342 12.8C82.4142 13.36 82.1642 13.97 81.9842 14.63C81.8242 15.29 81.7442 15.93 81.7442 16.55C81.7442 17.09 81.8142 17.61 81.9542 18.11C82.0942 18.61 82.3042 19.05 82.5842 19.43C82.8842 19.81 83.2642 20.11 83.7242 20.33C84.1842 20.55 84.7342 20.66 85.3742 20.66C87.0542 20.66 88.2942 20.19 89.0942 19.25C89.9142 18.29 90.4142 16.82 90.5942 14.84C90.1742 14.82 89.7642 14.79 89.3642 14.75C88.9642 14.69 88.5742 14.66 88.1942 14.66C86.8742 14.66 86.0342 15.11 85.6742 16.01L85.4642 15.98C85.5042 14.74 85.9342 13.73 86.7542 12.95C87.5942 12.15 88.7942 11.75 90.3542 11.75C90.7742 11.75 91.1642 11.78 91.5242 11.84C91.9042 11.88 92.2842 11.9 92.6642 11.9C93.2242 11.9 93.7442 11.8 94.2242 11.6C94.7242 11.4 95.0542 11.07 95.2142 10.61H95.3942ZM105.827 23L109.037 2.45C107.917 2.89 107.047 3.56 106.427 4.46C105.827 5.34 105.527 6.42 105.527 7.7C105.527 8.3 105.567 8.8 105.647 9.2C105.747 9.6 105.857 9.93 105.977 10.19C106.097 10.45 106.217 10.66 106.337 10.82C106.457 10.96 106.547 11.09 106.607 11.21C105.447 11.21 104.507 10.94 103.787 10.4C103.067 9.86 102.707 8.95 102.707 7.67C102.707 6.79 102.927 5.92 103.367 5.06C103.807 4.2 104.387 3.44 105.107 2.78C105.847 2.1 106.687 1.55 107.627 1.13C108.587 0.709998 109.577 0.499998 110.597 0.499998C111.417 0.499998 112.227 0.639998 113.027 0.919998L115.697 16.73L118.937 0.919998H123.257L124.787 23H120.467L119.537 9.53L116.747 23H112.637L110.357 9.53L108.227 23H105.827ZM139.49 8V18.2C139.49 19.04 139.6 19.6 139.82 19.88C140.06 20.14 140.47 20.27 141.05 20.27C141.63 20.27 142.11 20.02 142.49 19.52C142.89 19.02 143.12 18.39 143.18 17.63H144.44C144.28 18.85 144 19.83 143.6 20.57C143.2 21.29 142.75 21.85 142.25 22.25C141.75 22.63 141.24 22.88 140.72 23C140.2 23.12 139.74 23.18 139.34 23.18C138.28 23.18 137.47 22.94 136.91 22.46C136.37 21.96 135.99 21.28 135.77 20.42C135.61 20.76 135.42 21.1 135.2 21.44C134.98 21.76 134.71 22.05 134.39 22.31C134.09 22.57 133.73 22.78 133.31 22.94C132.91 23.1 132.44 23.18 131.9 23.18C131.26 23.18 130.63 23.06 130.01 22.82C129.39 22.58 128.82 22.19 128.3 21.65C127.8 21.11 127.39 20.4 127.07 19.52C126.77 18.62 126.62 17.52 126.62 16.22C126.62 15.3 126.72 14.35 126.92 13.37C127.14 12.39 127.47 11.49 127.91 10.67C128.37 9.85 128.96 9.18 129.68 8.66C130.42 8.12 131.31 7.85 132.35 7.85C132.59 7.85 132.85 7.87 133.13 7.91C133.41 7.93 133.68 8 133.94 8.12C134.2 8.22 134.44 8.38 134.66 8.6C134.88 8.8 135.05 9.08 135.17 9.44V8H139.49ZM135.17 10.88C135.15 10.8 135.11 10.7 135.05 10.58C134.99 10.44 134.9 10.31 134.78 10.19C134.66 10.05 134.51 9.94 134.33 9.86C134.15 9.76 133.94 9.71 133.7 9.71C133.22 9.71 132.8 9.92 132.44 10.34C132.1 10.74 131.82 11.25 131.6 11.87C131.4 12.47 131.25 13.14 131.15 13.88C131.05 14.6 131 15.29 131 15.95C131 17.01 131.08 17.84 131.24 18.44C131.4 19.02 131.59 19.45 131.81 19.73C132.05 19.99 132.3 20.15 132.56 20.21C132.82 20.25 133.04 20.27 133.22 20.27C133.44 20.27 133.66 20.22 133.88 20.12C134.12 20 134.33 19.83 134.51 19.61C134.71 19.39 134.87 19.12 134.99 18.8C135.11 18.46 135.17 18.07 135.17 17.63V10.88ZM147.241 3.26V8H149.071V9.2H147.241V18.2C147.241 19.04 147.351 19.6 147.571 19.88C147.811 20.14 148.221 20.27 148.801 20.27C149.381 20.27 149.861 20.02 150.241 19.52C150.641 19.02 150.871 18.39 150.931 17.63H152.191C152.031 18.85 151.751 19.83 151.351 20.57C150.951 21.29 150.501 21.85 150.001 22.25C149.501 22.63 148.991 22.88 148.471 23C147.951 23.12 147.491 23.18 147.091 23.18C145.551 23.18 144.471 22.76 143.851 21.92C143.231 21.06 142.921 19.93 142.921 18.53V9.2H141.961V8H142.921V3.86L147.241 3.26ZM158.149 12.65C158.189 12.49 158.209 12.35 158.209 12.23C158.229 12.11 158.239 11.95 158.239 11.75C158.239 10.93 158.119 10.34 157.879 9.98C157.659 9.62 157.369 9.44 157.009 9.44C156.609 9.44 156.259 9.65 155.959 10.07C155.679 10.47 155.439 10.99 155.239 11.63C155.059 12.25 154.919 12.95 154.819 13.73C154.739 14.51 154.699 15.27 154.699 16.01C154.699 16.95 154.759 17.72 154.879 18.32C155.019 18.92 155.219 19.39 155.479 19.73C155.739 20.07 156.059 20.31 156.439 20.45C156.839 20.59 157.289 20.66 157.789 20.66C158.389 20.66 158.909 20.58 159.349 20.42C159.809 20.26 160.219 20.05 160.579 19.79C160.939 19.51 161.269 19.19 161.569 18.83C161.869 18.45 162.159 18.05 162.439 17.63H163.459C163.179 18.33 162.839 19.01 162.439 19.67C162.059 20.33 161.579 20.92 160.999 21.44C160.439 21.96 159.769 22.38 158.989 22.7C158.229 23.02 157.339 23.18 156.319 23.18C155.479 23.18 154.699 23.06 153.979 22.82C153.259 22.56 152.629 22.16 152.089 21.62C151.569 21.06 151.159 20.34 150.859 19.46C150.579 18.58 150.439 17.52 150.439 16.28C150.439 15.44 150.519 14.53 150.679 13.55C150.859 12.55 151.179 11.63 151.639 10.79C152.099 9.95 152.719 9.25 153.499 8.69C154.299 8.13 155.329 7.85 156.589 7.85C157.369 7.85 158.009 7.96 158.509 8.18C159.029 8.4 159.439 8.68 159.739 9.02C160.039 9.34 160.249 9.7 160.369 10.1C160.489 10.48 160.549 10.85 160.549 11.21C160.549 11.73 160.439 12.16 160.219 12.5C160.019 12.84 159.739 13.01 159.379 13.01C159.219 13.01 159.029 12.98 158.809 12.92C158.589 12.86 158.369 12.77 158.149 12.65ZM170.082 13.88C170.082 12.7 169.942 11.86 169.662 11.36C169.402 10.86 169.012 10.61 168.492 10.61C167.952 10.61 167.542 10.88 167.262 11.42C166.982 11.96 166.812 12.61 166.752 13.37V23H162.432V2.6L166.752 2V9.56C167.232 8.84 167.762 8.38 168.342 8.18C168.922 7.98 169.442 7.88 169.902 7.88C170.482 7.88 171.032 7.97 171.552 8.15C172.072 8.33 172.522 8.63 172.902 9.05C173.302 9.47 173.612 10.03 173.832 10.73C174.052 11.41 174.162 12.26 174.162 13.28C174.162 13.62 174.152 13.99 174.132 14.39C174.132 14.77 174.122 15.16 174.102 15.56C174.082 15.96 174.062 16.35 174.042 16.73C174.042 17.11 174.042 17.44 174.042 17.72C174.042 18.56 174.142 19.2 174.342 19.64C174.562 20.06 174.992 20.27 175.632 20.27C176.112 20.27 176.432 20.21 176.592 20.09C176.592 21.17 176.362 21.96 175.902 22.46C175.462 22.94 174.812 23.18 173.952 23.18C173.212 23.18 172.592 23.04 172.092 22.76C171.592 22.46 171.182 22.06 170.862 21.56C170.562 21.06 170.342 20.48 170.202 19.82C170.082 19.16 170.022 18.46 170.022 17.72C170.022 17.46 170.022 17.16 170.022 16.82C170.042 16.46 170.052 16.11 170.052 15.77C170.052 15.41 170.052 15.07 170.052 14.75C170.072 14.41 170.082 14.12 170.082 13.88Z" fill="white"/>
</svg>
